HIERARCHY
ROOT Hips
{
	OFFSET 0.000000 0.000000 0.000000 
	CHANNELS 6 Xposition Yposition Zposition Yrotation Zrotation Xrotation 
	JOINT Lumbar
	{
		OFFSET 0.000000 0.000000 0.000000 
		CHANNELS 3 Zrotation Xrotation Yrotation
		JOINT Neck
		{
			OFFSET 0.000000 0.445665 0.000000 
			CHANNELS 3 Zrotation Xrotation Yrotation
			End Site
			{
				OFFSET 0.000000 0.227535 0.000000 
			}
		}
		JOINT RightShoulder
		{
			OFFSET 0.019635 0.377685 0.194865 
			CHANNELS 3 Zrotation Xrotation Yrotation
			JOINT RightElbow
			{
				OFFSET 0.000000 -0.243375 0.000000 
				CHANNELS 2 Zrotation Yrotation
				JOINT RightWrist
				{
					OFFSET 0.000000 -0.264825 0.000000 
					CHANNELS 2 Zrotation Xrotation
					End Site
					{
						OFFSET 0.006600 -0.176220 0.000990 
					}
				}
			}
		}
		JOINT LeftShoulder
		{
			OFFSET 0.019635 0.377685 -0.194865 
			CHANNELS 3 Zrotation Xrotation Yrotation
			JOINT LeftElbow
			{
				OFFSET 0.000000 -0.243375 0.000000 
				CHANNELS 2 Zrotation Yrotation
				JOINT LeftWrist
				{
					OFFSET 0.000000 -0.264825 0.000000 
					CHANNELS 2 Zrotation Xrotation
					End Site
					{
						OFFSET 0.006600 -0.176220 -0.000990 
					}
				}
			}
		}
	}
	JOINT RightHip
	{
		OFFSET 0.052140 -0.069960 0.075570 
		CHANNELS 3 Zrotation Xrotation Yrotation
		JOINT RightKnee
		{
			OFFSET 0.000000 -0.402270 0.000000 
			CHANNELS 1 Zrotation
			JOINT RightAnkle
			{
				OFFSET 0.000000 -0.404085 0.000000 
				CHANNELS 3 Zrotation Xrotation Yrotation
				End Site
				{
					OFFSET 0.204105 -0.089430 0.008415 
				}
			}
		}
	}
	JOINT LeftHip
	{
		OFFSET 0.052140 -0.069960 -0.075570 
		CHANNELS 3 Zrotation Xrotation Yrotation
		JOINT LeftKnee
		{
			OFFSET 0.000000 -0.402270 0.000000 
			CHANNELS 1 Zrotation
			JOINT LeftAnkle
			{
				OFFSET 0.000000 -0.404085 0.000000 
				CHANNELS 3 Zrotation Xrotation Yrotation
				End Site
				{
					OFFSET 0.204105 -0.089430 -0.008415 
				}
			}
		}
	}
}
MOTION
Frames: 22
Frame Time: 0.02
0.00042 0.00011 -0.00014 17.00077 -35.12955 -3.12793 57.16173 1.16955 1.72136 -6.69921 -1.9895 -1.23647 157.0598 -76.76003 -58.2578 11.59643 71.57892 0.97284 -5.64903 -3.9235 104.08502 -55.62637 5.78966 -89.91633 14.89863 1.47365 51.35045 -3.81335 -15.24179 -18.89914 -7.07521 -2.32183 -3.36047 51.56134 2.85647 1.54595 -24.28285 -9.37451 4.55758 4.61036
0.00081 0.00018 -0.00016 17.11725 -35.12316 -3.15438 57.18984 1.14769 1.71055 -6.82097 -1.96414 -1.23852 157.25939 -76.73826 -58.0124 11.63312 71.61348 0.97898 -5.70093 -4.03094 104.04698 -55.62714 5.78939 -89.8882 14.86576 1.52493 51.31561 -3.72227 -14.76106 -18.89884 -7.08969 -2.37426 -3.39184 51.5247 3.01518 2.20534 -24.27929 -9.28794 4.51249 4.58258
0.00119 0.00024 -0.00019 17.23346 -35.11676 -3.18076 57.21788 1.12587 1.69978 -6.9425 -1.93883 -1.24057 157.45847 -76.71656 -57.76764 11.66967 71.64796 0.98505 -5.7527 -4.13809 104.00901 -55.6279 5.78912 -89.86013 14.83299 1.57606 51.28078 -3.6315 -14.28206 -18.89854 -7.10411 -2.42653 -3.4231 51.48811 3.17349 2.86303 -24.27575 -9.2016 4.46752 4.55487
0.00158 0.00031 -0.00021 17.3496 -35.11038 -3.20712 57.24591 1.10407 1.689 -7.0639 -1.91355 -1.24261 157.65747 -76.69485 -57.52297 11.70625 71.68242 0.99116 -5.80446 -4.24522 103.97108 -55.62866 5.78885 -89.83208 14.80023 1.62719 51.24603 -3.5407 -13.80286 -18.89825 -7.11854 -2.4788 -3.45436 51.45157 3.33172 3.52045 -24.27221 -9.11529 4.42257 4.52718
0.00197 0.00038 -0.00023 17.46595 -35.10403 -3.23354 57.274 1.08223 1.67817 -7.18549 -1.88821 -1.24466 157.85693 -76.67308 -57.27775 11.74298 71.71696 0.99734 -5.85634 -4.35262 103.93307 -55.62942 5.78858 -89.80397 14.76737 1.67846 51.21128 -3.44958 -13.32183 -18.89794 -7.13303 -2.53124 -3.48573 51.41501 3.49033 4.17946 -24.26866 -9.02876 4.37751 4.49942
0.00235 0.00044 -0.00026 17.58186 -35.09752 -3.25983 57.30194 1.06045 1.66754 -7.30689 -1.86298 -1.2467 158.0552 -76.65155 -57.03396 11.77915 71.75131 1.00319 -5.90786 -4.45923 103.8952 -55.63019 5.78831 -89.776 14.73479 1.72928 51.1763 -3.35954 -12.84711 -18.89767 -7.14731 -2.58315 -3.51675 51.37836 3.64798 4.8343 -24.26514 -8.9428 4.33272 4.47182
0.00274 0.00051 -0.00028 17.69855 -35.09133 -3.28636 57.33015 1.03859 1.6565 -7.42851 -1.83757 -1.24876 158.25567 -76.62953 -56.78753 11.81641 71.786 1.0097 -5.96006 -4.56733 103.85711 -55.63096 5.78803 -89.74779 14.70169 1.78097 51.14183 -3.26745 -12.3603 -18.89733 -7.162 -2.63605 -3.54845 51.34192 3.80738 5.49679 -24.26157 -8.85582 4.28744 4.44393
0.00312 0.00057 -0.0003 17.81451 -35.08485 -3.31267 57.35812 1.01679 1.64585 -7.54994 -1.81232 -1.2508 158.45405 -76.60799 -56.54359 11.85267 71.82037 1.01561 -6.01162 -4.67401 103.81919 -55.63169 5.78776 -89.71977 14.66905 1.83183 51.10689 -3.17722 -11.88449 -18.89705 -7.17631 -2.68805 -3.57953 51.30529 3.96519 6.15229 -24.25804 -8.76976 4.24261 4.41631
0.00351 0.00064 -0.00033 17.92966 -35.07799 -3.33869 57.38577 0.9951 1.63565 -7.67116 -1.78727 -1.25282 158.65023 -76.58692 -56.30234 11.8877 71.85438 1.02075 -6.06249 -4.77921 103.78159 -55.6325 5.7875 -89.69209 14.63706 1.88182 51.07135 -3.08933 -11.42257 -18.89685 -7.19017 -2.73895 -3.60983 51.26842 4.12105 6.79933 -24.25456 -8.68485 4.19833 4.389
0.0039 0.00071 -0.00035 18.04973 -35.07326 -3.36632 57.4152 0.97286 1.6228 -7.7937 -1.76109 -1.25496 158.86013 -76.56282 -56.04454 11.92975 71.89058 1.03021 -6.11758 -4.89369 103.74247 -55.63324 5.7872 -89.66278 14.60159 1.93723 51.03916 -2.98818 -10.88206 -18.89621 -7.20663 -2.79617 -3.64452 51.23289 4.2881 7.49532 -24.25078 -8.59337 4.15088 4.35984
0.00428 0.00077 -0.00037 18.15925 -35.06406 -3.39057 57.4409 0.95176 1.61558 -7.91335 -1.73727 -1.25685 159.04039 -76.5453 -55.82236 11.95706 71.92209 1.03063 -6.16363 -4.98811 103.70638 -55.63388 5.78698 -89.63671 14.57331 1.98095 51 -2.91486 -10.50652 -18.89649 -7.21764 -2.84006 -3.67001 51.19458 4.43152 8.08776 -24.24765 -8.51575 4.11011 4.33461
0.00464 0.0008 -0.00037 18.24089 -35.04221 -3.40545 57.45597 0.93386 1.62347 -8.02585 -1.72018 -1.25803 159.14421 -76.54464 -55.69319 11.94295 71.94102 1.00531 -6.18567 -5.02811 103.67961 -55.63434 5.78693 -89.62088 14.56587 1.9944 50.94053 -2.92003 -10.59497 -18.89934 -7.21335 -2.84675 -3.66967 51.14807 4.50982 8.39588 -24.24637 -8.47642 4.08796 4.32022
0.00499 0.00082 -0.00037 18.3117 -35.01592 -3.41694 57.46735 0.91708 1.63709 -8.13531 -1.70541 -1.25896 159.2173 -76.55088 -55.60069 11.91419 71.95517 0.97103 -6.1985 -5.04596 103.65536 -55.63332 5.78699 -89.6079 14.56534 1.99587 50.87426 -2.95277 -10.84707 -18.9031 -7.20367 -2.84014 -3.66019 51.09889 4.56445 8.60008 -24.24576 -8.45096 4.07248 4.30978
0.00534 0.00085 -0.00037 18.38683 -34.9919 -3.43003 57.48067 0.89972 1.64829 -8.24566 -1.68943 -1.26002 159.30131 -76.55468 -55.49445 11.89279 71.97134 0.94151 -6.215 -5.07595 103.62977 -55.63468 5.78696 -89.5929 14.56103 2.00156 50.81183 -2.97151 -11.01673 -18.90639 -7.1967 -2.84004 -3.6553 51.05132 4.63008 8.85194 -24.24483 -8.41896 4.05378 4.29749
0.0057 0.00087 -0.00038 18.46467 -34.96685 -3.44285 57.49291 0.88264 1.65867 -8.35807 -1.67413 -1.26105 159.39832 -76.55533 -55.37583 11.86849 71.98818 0.90927 -6.23357 -5.10492 103.60641 -55.63445 5.78695 -89.58156 14.55985 2.01206 50.74619 -2.99646 -11.22035 -18.90989 -7.18862 -2.83804 -3.64861 51.00207 4.69462 9.10173 -24.24394 -8.38794 4.03589 4.28541
0.00604 0.0009 -0.00037 18.53404 -34.94285 -3.45543 57.50647 0.86528 1.67217 -8.46544 -1.65793 -1.26206 159.46071 -76.56446 -55.29183 11.84666 72.00246 0.88035 -6.24573 -5.12101 103.57722 -55.6301 5.78714 -89.56253 14.55328 2.01009 50.6857 -3.01507 -11.39256 -18.9132 -7.18156 -2.83674 -3.64344 50.95567 4.75587 9.33126 -24.24313 -8.35823 4.01791 4.27385
0.00633 0.00092 -0.00032 18.5849 -34.92322 -3.4681 57.52513 0.84663 1.69238 -8.5598 -1.63896 -1.26309 159.43732 -76.59272 -55.29307 11.83613 72.01097 0.86478 -6.24193 -5.14726 103.53989 -55.64211 5.78696 -89.52306 14.53051 1.97567 50.64066 -3.00883 -11.43247 -18.91557 -7.17882 -2.84154 -3.64521 50.91799 4.81333 9.52974 -24.24236 -8.32816 3.99777 4.26262
0.0066 0.00095 -0.00025 18.62716 -34.90474 -3.48065 57.54514 0.8277 1.71562 -8.64911 -1.61895 -1.26411 159.37971 -76.6297 -55.3282 11.8285 72.01702 0.85252 -6.23213 -5.1239 103.49025 -55.62199 5.78788 -89.47205 14.49943 1.9308 50.60118 -2.99534 -11.43596 -18.91776 -7.17728 -2.84738 -3.64875 50.88327 4.86835 9.71138 -24.24165 -8.29904 3.97738 4.25181
0.00687 0.00098 -0.00019 18.67194 -34.88549 -3.49333 57.56418 0.80907 1.73778 -8.74065 -1.59921 -1.26513 159.33632 -76.66443 -55.3486 11.81887 72.0241 0.83746 -6.22534 -5.13475 103.44663 -55.62771 5.78793 -89.4297 14.47512 1.88945 50.5594 -2.98555 -11.45987 -18.92018 -7.17509 -2.85214 -3.65114 50.84704 4.92488 9.90131 -24.24091 -8.26984 3.95727 4.24087
0.00715 0.00101 -0.00014 18.72236 -34.86712 -3.50564 57.58458 0.78977 1.75889 -8.8325 -1.58039 -1.26616 159.2976 -76.69235 -55.36716 11.81129 72.03142 0.82751 -6.21682 -5.21826 103.42079 -55.68 5.78652 -89.3871 14.44888 1.84674 50.51626 -2.97506 -11.47372 -18.922 -7.17315 -2.8589 -3.65463 50.81128 4.97909 10.08561 -24.24016 -8.23957 3.93663 4.22976
0.0074 0.00103 -6e-05 18.75895 -34.84728 -3.51864 57.60251 0.77174 1.78286 -8.92238 -1.55942 -1.26716 159.24126 -76.73619 -55.39747 11.80074 72.03769 0.80786 -6.21087 -4.98509 103.33054 -55.50969 5.79222 -89.32464 14.41147 1.81222 50.47757 -2.96387 -11.49703 -18.92503 -7.17106 -2.86202 -3.65641 50.77545 5.03761 10.27812 -24.23948 -8.21166 3.917 4.21909
0.00757 0.00105 8e-05 18.76094 -34.82268 -3.53431 57.6134 0.75753 1.81379 -9.00931 -1.53232 -1.26811 159.14653 -76.82378 -55.44827 11.77762 72.04195 0.76035 -6.21112 -5.25684 103.28256 -55.78103 5.78329 -89.36668 14.46195 1.73479 50.44818 -2.95315 -11.56115 -18.93137 -7.16795 -2.85394 -3.65266 50.73727 5.11096 10.5056 -24.23869 -8.18936 3.89972 4.20918
